<mxfile host="app.diagrams.net" agent="Mozilla/5.0 (Windows NT 10.0; Win64; x64) AppleWebKit/537.36 (KHTML, like Gecko) Chrome/130.0.0.0 Safari/537.36" version="24.8.3">
  <diagram name="第 1 页" id="de5otH03m_SPK9iarouQ">
    <mxGraphModel dx="1221" dy="733" grid="1" gridSize="10" guides="1" tooltips="1" connect="1" arrows="1" fold="1" page="1" pageScale="1" pageWidth="827" pageHeight="1169" math="0" shadow="0">
      <root>
        <mxCell id="0" />
        <mxCell id="1" parent="0" />
        <mxCell id="5sCqe2Y4pc2D01-fO_ta-1" value="&lt;font style=&quot;font-size: 16px;&quot;&gt;x⬅3&lt;/font&gt;" style="rounded=0;whiteSpace=wrap;html=1;fillColor=#d5e8d4;strokeColor=#82b366;" vertex="1" parent="1">
          <mxGeometry x="160" y="200" width="40" height="40" as="geometry" />
        </mxCell>
        <mxCell id="5sCqe2Y4pc2D01-fO_ta-2" value="&lt;font style=&quot;font-size: 16px;&quot;&gt;x⬅3&lt;/font&gt;" style="rounded=0;whiteSpace=wrap;html=1;fillColor=#d5e8d4;strokeColor=#82b366;" vertex="1" parent="1">
          <mxGeometry x="200" y="200" width="40" height="40" as="geometry" />
        </mxCell>
        <mxCell id="5sCqe2Y4pc2D01-fO_ta-3" value="&lt;font style=&quot;font-size: 16px;&quot;&gt;x⬅3&lt;/font&gt;" style="rounded=0;whiteSpace=wrap;html=1;fillColor=#d5e8d4;strokeColor=#82b366;" vertex="1" parent="1">
          <mxGeometry x="240" y="200" width="40" height="40" as="geometry" />
        </mxCell>
        <mxCell id="5sCqe2Y4pc2D01-fO_ta-4" value="&lt;font style=&quot;font-size: 16px;&quot;&gt;x⬅3&lt;/font&gt;" style="rounded=0;whiteSpace=wrap;html=1;fillColor=#ffe6cc;strokeColor=#d79b00;" vertex="1" parent="1">
          <mxGeometry x="280" y="200" width="40" height="40" as="geometry" />
        </mxCell>
        <mxCell id="5sCqe2Y4pc2D01-fO_ta-5" value="&lt;font style=&quot;font-size: 16px;&quot;&gt;x⬅3&lt;/font&gt;" style="rounded=0;whiteSpace=wrap;html=1;fillColor=#dae8fc;strokeColor=#6c8ebf;" vertex="1" parent="1">
          <mxGeometry x="320" y="200" width="40" height="40" as="geometry" />
        </mxCell>
        <mxCell id="5sCqe2Y4pc2D01-fO_ta-6" value="&lt;font style=&quot;font-size: 16px;&quot;&gt;1&amp;nbsp; &amp;nbsp; &amp;nbsp; &amp;nbsp;1&amp;nbsp; &amp;nbsp; &amp;nbsp; &amp;nbsp;1&lt;/font&gt;" style="rounded=0;whiteSpace=wrap;html=1;fillColor=#d5e8d4;strokeColor=#82b366;" vertex="1" parent="1">
          <mxGeometry x="160" y="160" width="120" height="40" as="geometry" />
        </mxCell>
        <mxCell id="5sCqe2Y4pc2D01-fO_ta-7" value="&lt;span style=&quot;font-size: 16px;&quot;&gt;1&lt;/span&gt;" style="rounded=0;whiteSpace=wrap;html=1;" vertex="1" parent="1">
          <mxGeometry x="160" y="120" width="40" height="40" as="geometry" />
        </mxCell>
        <mxCell id="5sCqe2Y4pc2D01-fO_ta-8" value="&lt;span style=&quot;font-size: 16px;&quot;&gt;2&lt;/span&gt;" style="rounded=0;whiteSpace=wrap;html=1;" vertex="1" parent="1">
          <mxGeometry x="200" y="120" width="40" height="40" as="geometry" />
        </mxCell>
        <mxCell id="5sCqe2Y4pc2D01-fO_ta-9" value="&lt;span style=&quot;font-size: 16px;&quot;&gt;3&lt;/span&gt;" style="rounded=0;whiteSpace=wrap;html=1;" vertex="1" parent="1">
          <mxGeometry x="240" y="120" width="40" height="40" as="geometry" />
        </mxCell>
        <mxCell id="5sCqe2Y4pc2D01-fO_ta-10" value="&lt;span style=&quot;font-size: 16px;&quot;&gt;4&lt;/span&gt;" style="rounded=0;whiteSpace=wrap;html=1;" vertex="1" parent="1">
          <mxGeometry x="280" y="120" width="40" height="40" as="geometry" />
        </mxCell>
        <mxCell id="5sCqe2Y4pc2D01-fO_ta-11" value="&lt;span style=&quot;font-size: 16px;&quot;&gt;5&lt;/span&gt;" style="rounded=0;whiteSpace=wrap;html=1;" vertex="1" parent="1">
          <mxGeometry x="320" y="120" width="40" height="40" as="geometry" />
        </mxCell>
        <mxCell id="5sCqe2Y4pc2D01-fO_ta-12" value="&lt;span style=&quot;font-size: 16px;&quot;&gt;2&lt;/span&gt;" style="rounded=0;whiteSpace=wrap;html=1;fillColor=#ffe6cc;strokeColor=#d79b00;" vertex="1" parent="1">
          <mxGeometry x="280" y="160" width="40" height="40" as="geometry" />
        </mxCell>
        <mxCell id="5sCqe2Y4pc2D01-fO_ta-13" value="&lt;span style=&quot;font-size: 16px;&quot;&gt;3&lt;/span&gt;" style="rounded=0;whiteSpace=wrap;html=1;fillColor=#dae8fc;strokeColor=#6c8ebf;" vertex="1" parent="1">
          <mxGeometry x="320" y="160" width="40" height="40" as="geometry" />
        </mxCell>
        <mxCell id="5sCqe2Y4pc2D01-fO_ta-14" value="&lt;b&gt;&lt;font style=&quot;font-size: 20px;&quot;&gt;Index&lt;/font&gt;&lt;/b&gt;" style="text;html=1;align=center;verticalAlign=middle;whiteSpace=wrap;rounded=0;" vertex="1" parent="1">
          <mxGeometry x="60" y="125" width="60" height="30" as="geometry" />
        </mxCell>
        <mxCell id="5sCqe2Y4pc2D01-fO_ta-16" value="&lt;b&gt;&lt;font style=&quot;font-size: 20px;&quot;&gt;Term&lt;/font&gt;&lt;/b&gt;" style="text;html=1;align=center;verticalAlign=middle;whiteSpace=wrap;rounded=0;" vertex="1" parent="1">
          <mxGeometry x="60" y="165" width="60" height="30" as="geometry" />
        </mxCell>
        <mxCell id="5sCqe2Y4pc2D01-fO_ta-17" value="&lt;b&gt;&lt;font style=&quot;font-size: 20px;&quot;&gt;Command&lt;/font&gt;&lt;/b&gt;" style="text;html=1;align=center;verticalAlign=middle;whiteSpace=wrap;rounded=0;" vertex="1" parent="1">
          <mxGeometry x="60" y="205" width="60" height="30" as="geometry" />
        </mxCell>
      </root>
    </mxGraphModel>
  </diagram>
</mxfile>
